<svg xmlns="http://www.w3.org/2000/svg" viewBox="0 0 512 512" role="img" aria-labelledby="title desc">
  <title id="title">Elbysodic lowercase e roster</title>
  <desc id="desc">A lowercase e mark with roster face nodes attached to the scene bar.</desc>
  <rect x="74" y="74" width="364" height="364" rx="44" fill="#071018"/>
  <path d="M258 132c-78 0-140 56-140 124s62 124 140 124c54 0 98-24 122-64h-78c-11 10-26 16-44 16-34 0-62-20-72-50h206c2-9 4-18 4-28 0-68-62-122-138-122z" fill="#f7fbff"/>
  <path d="M190 234c10-30 36-50 68-50s58 20 68 50z" fill="#071018"/>
  <path d="M182 256h172" stroke="#071018" stroke-width="36" stroke-linecap="square"/>
  <path d="M254 116v280" stroke="#071018" stroke-width="18" stroke-linecap="square"/>
  <circle cx="154" cy="190" r="15" fill="#36d6ff"/>
  <circle cx="142" cy="256" r="15" fill="#ff5ccf"/>
  <circle cx="164" cy="322" r="15" fill="#f7c948"/>
  <path d="M154 190h52M142 256h64M164 322h50" stroke="#071018" stroke-width="8" stroke-linecap="square"/>
</svg>
