<svg xmlns="http://www.w3.org/2000/svg" viewBox="0 0 512 512" role="img" aria-labelledby="title desc">
  <title id="title">Elbysodic negative director mask</title>
  <desc id="desc">A registration frame whose cutout creates a face mask and central scene aperture.</desc>
  <rect x="88" y="88" width="336" height="336" rx="24" fill="#071018"/>
  <path d="M136 136h240v240H136z" fill="#f7fbff"/>
  <path d="M256 156c-58 0-104 45-104 100s46 100 104 100h72c-42-22-68-58-68-100s26-78 68-100z" fill="#071018"/>
  <circle cx="288" cy="232" r="13" fill="#f7fbff"/>
  <path d="M300 282h62" stroke="#f7fbff" stroke-width="22" stroke-linecap="square"/>
  <path d="M88 190V88h102M322 88h102v102M424 322v102H322M190 424H88V322" fill="none" stroke="#071018" stroke-width="38" stroke-linecap="square"/>
  <path d="M116 116h74" stroke="#36d6ff" stroke-width="14" stroke-linecap="square"/>
  <path d="M322 116h74" stroke="#ff5ccf" stroke-width="14" stroke-linecap="square"/>
  <path d="M322 396h74" stroke="#f7c948" stroke-width="14" stroke-linecap="square"/>
  <path d="M116 396h74" stroke="#43d19e" stroke-width="14" stroke-linecap="square"/>
</svg>
